<svg version="1.1" viewBox="0.0 0.0 864.0 240.0" fill="none" stroke="none" stroke-linecap="square" stroke-miterlimit="10" xmlns:xlink="http://www.w3.org/1999/xlink" xmlns="http://www.w3.org/2000/svg"><clipPath id="p.0"><path d="m0 0l864.0 0l0 240.0l-864.0 0l0 -240.0z" clip-rule="nonzero"/></clipPath><g clip-path="url(#p.0)"><path fill="#000000" fill-opacity="0.0" d="m0 0l864.0 0l0 240.0l-864.0 0z" fill-rule="evenodd"/><path fill="#000000" fill-opacity="0.0" d="m41.919712 14.923884l436.8504 0l0 139.1496l-436.8504 0z" fill-rule="evenodd"/><path fill="#4400ff" d="m79.43534 177.31451q-6.375 0 -11.453125 -3.328125q-5.078129 -3.3125 -8.593754 -9.046875q-3.515625 -5.71875 -5.15625 -13.265625q-1.625 -7.5625 -1.234375 -16.03125q0.53125 -8.984383 2.734375 -18.546883q2.21875 -9.578125 5.984375 -18.6875q3.7812538 -9.109375 8.796879 -17.3125q5.015625 -8.203125 11.0625 -14.3125q6.0625 -6.124996 12.953125 -9.703121q6.90625 -3.59375 14.46875 -3.59375q4.9375 0 8.3125 2.484375q3.390625 2.46875 5.28125 6.4375q1.890625 3.9687462 2.40625 8.921871q0.53125 4.953125 -0.0625 9.828125q-0.578125 4.875 -2.21875 9.375q-1.625 4.484375 -3.96875 7.359375q-2.984375 3.765625 -5.390625 3.96875q-2.40625 0.1875 -4.625 -1.375q-0.90625 -0.78125 -1.828125 -1.8125q-0.90625 -0.921875 -1.953125 -2.28125q-1.03125 -1.375 -2.203125 -3.453125q2.46875 -0.90625 4.546875 -3.046875q2.09375 -2.15625 3.578125 -4.890625q1.5 -2.734375 2.34375 -5.796875q0.859375 -3.0625 0.984375 -6.046875q0.125 -2.34375 -0.140625 -4.625q-0.25 -2.28125 -1.03125 -4.03125q-0.78125 -1.7656212 -2.15625 -2.8749962q-1.359375 -1.109375 -3.4375 -1.109375q-5.21875 0 -10.171875 3.9843712q-4.9375 3.96875 -9.296875 10.546875q-4.359375 6.5625 -8.078125 15.03125q-3.703125 8.453125 -6.4375 17.4375q-2.734375 8.984375 -4.4375 17.71875q-1.6875 8.718758 -2.078125 15.875008q-0.515625 8.984375 0.65625 14.578125q1.171875 5.609375 3.1875 8.796875q2.015625 3.1875 4.359375 4.296875q2.34375 1.109375 4.296875 1.109375q3.640625 0 8.203125 -3.390625q4.5625 -3.375 8.71875 -9.171875q4.171875 -5.796875 7.484375 -13.34375q3.328125 -7.5625 4.765625 -15.890625q-3.265625 0 -6.59375 0.0625q-3.3125 0.0625 -6.3125 0.203125q-2.984375 0.125 -5.328125 0.328125q-2.34375 0.1875 -3.640625 0.453125q-0.921875 -0.390625 -1.25 -0.90625q-0.3125 -0.5312576 -0.578125 -1.1875076q-0.265625 -0.515625 -0.265625 -1.296875q0 -0.78125 0.265625 -1.4375q0.265625 -0.640625 0.65625 -1.359375q0.390625 -0.71875 1.03125 -1.5q4.171875 -0.78125 8.203125 -1.296875q4.046875 -0.53125 8.40625 -0.84375q4.359375 -0.328125 9.375 -0.515625q5.015625 -0.203125 11.25 -0.34375q2.609375 -0.125 3.1875 0.65625q0.59375 0.78125 -0.453125 3.90625q-0.78125 2.46875 -2.015625 4.03125q-1.234375 1.5625076 -4.09375 1.3125076q-0.921875 0 -1.4375 -0.140625q-1.171875 7.6875 -4.953125 16.28125q-3.765625 8.59375 -9.234375 15.875q-5.46875 7.296875 -12.046875 12.109375q-6.578125 4.828125 -13.34375 4.828125zm48.168686 -26.046875q-0.90625 1.4375 -2.015625 1.890625q-1.109375 0.453125 -1.953125 0.125q-0.84375 -0.3125 -1.09375 -1.359375q-0.265625 -1.046875 0.515625 -2.609375q0.390625 -0.78125 1.765625 -3.515625q1.359375 -2.734375 3.2499924 -6.5625q1.875 -3.84375 4.09375 -8.328125q2.21875 -4.5000076 4.234375 -8.531258q2.015625 -4.046875 3.703125 -7.234375q1.703125 -3.1875 2.484375 -4.625q-1.4375 -1.296875 -1.96875 -1.875q-0.515625 -0.59375 -0.765625 -2.546875q-0.265625 -1.703125 0.765625 -4.4375q1.046875 -2.734375 2.734375 -5.265625q1.703125 -2.546875 3.78125 -4.359375q2.09375 -1.828125 4.046875 -1.828125q3.640625 0 5.140625 2.34375q1.5 2.34375 1.75 4.8125q0.265625 1.703125 -0.265625 4.3125q-0.515625 2.59375 -1.9375 4.671875q0.390625 0.265625 1.03125 0.59375q0.65625 0.328125 2.09375 0.328125q2.078125 0 2.921875 -0.265625q0.84375 -0.265625 2.671875 -0.265625q2.21875 0 3.640625 1.109375q1.4375 1.109375 2.34375 2.734375q0.921875 1.625 1.375 3.515625q0.453125 1.890625 0.578125 3.453125q0.390625 3.25 -1.6875 6.765625q-2.078125 3.515625 -5.078125 7.6875076q-1.828125 2.609375 -3.65625 5.859375q-1.8125 3.25 -1.546875 5.859375q0.25 1.6875 0.90625 2.734375q0.65625 1.046875 3.640625 1.046875q2.21875 0 4.890625 -1.625q2.671875 -1.640625 5.46875 -4.171875q2.796875 -2.546875 5.53125 -5.59375q2.734375 -3.0625 5.078125 -5.984375q2.34375 -2.9375076 3.96875 -5.2812576q1.625 -2.34375 2.40625 -3.390625q0.65625 -1.046875 1.6875 -1.4375q1.046875 -0.390625 1.828125 0q0.78125 0.390625 0.96875 1.5625q0.203125 1.171875 -0.96875 3.125q-0.78125 1.3125 -2.671875 4.1718826q-1.875 2.859375 -4.546875 6.375q-2.671875 3.515625 -5.9375 7.234375q-3.25 3.703125 -6.828125 6.765625q-3.578125 3.0625 -7.15625 5.015625q-3.578125 1.953125 -6.84375 1.953125q-3.375 0 -5.59375 -1.3125q-2.21875 -1.296875 -3.59375 -3.171875q-1.359375 -1.890625 -1.953125 -4.171875q-0.578125 -2.28125 -0.4375 -4.234375q0.125 -1.5625 0.84375 -3.3125q0.71875 -1.765625 1.6875 -3.65625q0.984375 -1.890625 2.078125 -3.765625q1.109375 -1.890625 2.03125 -3.71875q2.203125 -3.7812576 3.5625 -6.4375076q1.375 -2.671875 1.375 -4.5q0 -1.171875 -0.515625 -2.078125q-0.515625 -0.921875 -1.6875 -0.921875q-0.78125 0 -1.109375 0.078125q-0.328125 0.0625 -0.65625 0.0625q-0.328125 0 -0.921875 0.0625q-0.578125 0.0625 -1.75 0.0625q-1.6875 0 -2.859375 -0.515625q-1.171875 -0.53125 -2.21875 -0.78125q-0.515625 0.90625 -2.34375 3.90625q-1.8125 2.984375 -4.234375 7.03125q-2.40625 4.0312576 -5.078125 8.468758q-2.65625 4.421875 -5.0 8.265625q-2.34375 3.828125 -3.96875 6.5q-1.6406174 2.671875 -2.0312424 3.1875zm118.10204 -26.421883q-3.90625 5.7187576 -8.859375 11.125008q-4.9375 5.40625 -10.484375 9.640625q-5.53125 4.234375 -11.328125 6.828125q-5.78125 2.609375 -11.25 2.609375q-2.875 0 -6.203125 -1.375q-3.3125 -1.359375 -6.046875 -4.21875q-2.734375 -2.875 -4.359375 -7.421875q-1.625 -4.5625 -0.96875 -11.078125q0.515625 -5.3281326 3.3125 -11.250008q2.796875 -5.9375 6.890625 -10.875q4.109375 -4.953125 9.25 -8.203125q5.15625 -3.265625 10.359375 -3.265625q4.953125 0 7.15625 2.484375q2.21875 2.46875 1.953125 6.109375q-0.390625 4.046875 -2.28125 7.4375q-1.875 3.375 -4.484375 6.109375q-2.609375 2.734375 -5.546875 4.953125q-2.921875 2.203125 -5.515625 4.0312576q-2.875 1.953125 -5.484375 3.71875q-2.59375 1.75 -4.546875 3.1875q0.125 3.25 1.171875 5.46875q1.046875 2.203125 2.609375 3.578125q1.5625 1.359375 3.578125 1.953125q2.015625 0.578125 4.09375 0.578125q4.4375 0 9.25 -2.796875q4.8125 -2.796875 9.4375 -6.765625q4.625 -3.96875 8.59375 -8.265625q3.96875 -4.2968826 6.578125 -7.4218826q0.90625 -1.046875 1.875 -1.234375q0.984375 -0.203125 1.5625 0.25q0.59375 0.453125 0.59375 1.5625q0 1.109375 -0.90625 2.546875zm-33.328125 -20.0625q-1.5625 0 -3.71875 1.5625q-2.140625 1.5625 -4.234375 4.5q-2.078125 2.921875 -3.90625 7.15625q-1.8125 4.234375 -2.734375 9.703125q1.5625 -1.171875 3.390625 -2.40625q1.828125 -1.234375 3.640625 -2.671875q5.609375 -4.296875 7.8125 -7.546875q2.21875 -3.265625 2.484375 -5.609375q0.25 -2.46875 -0.53125 -3.578125q-0.78125 -1.109375 -2.203125 -1.109375zm58.201187 -0.78125q1.6875 -1.296875 3.3125 -2.015625q1.625 -0.71875 2.9375 -0.96875q1.421875 -0.390625 2.859375 -0.265625q3.515625 0.265625 4.359375 2.21875q0.84375 1.953125 0.203125 6.25q-0.390625 2.203125 -1.5625 5.59375q-1.171875 3.390625 -2.734375 8.28125q-1.5625 4.875 -3.328125 11.125008q-1.75 6.25 -3.3125 14.0625q-1.5625 6.375 -3.390625 14.703125q-1.5625 7.296875 -3.71875 17.578125q-2.140625 10.296875 -4.609375 23.578125q-0.65625 3.25 -2.8125 3.765625q-2.140625 0.53125 -4.484375 -0.515625q-0.90625 -0.515625 -1.6875 -1.171875q-0.65625 -0.65625 -1.4375 -1.5q-0.78125 -0.84375 -1.296875 -2.28125q2.984375 -10.9375 5.265625 -19.921875q2.28125 -8.984375 4.109375 -15.625q1.953125 -7.671875 3.640625 -13.796875q0.65625 -2.734375 1.234375 -5.40625q0.59375 -2.671875 1.234375 -5.265625q-1.6875 2.734375 -3.640625 5.203125q-1.953125 2.46875 -4.296875 4.296875q-2.34375 1.828125 -5.015625 2.796875q-2.671875 0.984375 -5.53125 0.59375q-7.03125 -0.921875 -9.96875 -5.21875q-2.921875 -4.296875 -2.53125 -11.1875q0.125 -2.734375 0.78125 -5.984375q0.65625 -3.265625 1.4375 -6.2500076q0.78125 -3.0 1.484375 -5.40625q0.71875 -2.421875 1.109375 -3.453125q1.5625 -4.953125 2.28125 -8.46875q0.71875 -3.515625 -1.109375 -5.859375q1.828125 -1.171875 3.453125 -1.625q1.625 -0.453125 2.9375 -0.71875q1.421875 -0.125 2.859375 0q3.515625 0.515625 4.09375 2.609375q0.59375 2.078125 -0.453125 6.25q-0.515625 2.203125 -1.6875 5.65625q-1.171875 3.453125 -2.484375 7.109375q-1.296875 3.640625 -2.34375 6.7031326q-1.03125 3.046875 -1.15625 4.359375q-1.171875 5.859375 -0.140625 9.046875q1.046875 3.1875 4.5625 3.1875q1.6875 0 3.765625 -1.5q2.09375 -1.5 4.234375 -3.96875q2.15625 -2.46875 4.234375 -5.65625q2.09375 -3.203125 3.84375 -6.453125q1.765625 -3.2500076 3.125 -6.3750076q1.375 -3.125 2.015625 -5.609375q0.921875 -4.8125 1.171875 -7.546875q0.265625 -2.734375 -1.8125 -4.953125zm32.53955 -27.203125q-2.078125 -0.265625 -3.453125 -1.890625q-1.359375 -1.625 -0.96875 -4.625q0.265625 -1.953125 1.296875 -3.578125q1.046875 -1.625 2.546875 -2.7968712q1.5 -1.171875 3.3125 -1.6875q1.828125 -0.53125 3.78125 -0.390625q3.390625 0.390625 4.359375 3.3281212q0.984375 2.921875 0.328125 6.4375q-0.265625 1.8125 -1.046875 4.296875q-0.78125 2.46875 -2.28125 5.078125q-1.484375 2.59375 -3.640625 5.078125q-2.140625 2.46875 -5.140625 4.421875q-1.296875 0.78125 -2.015625 0.71875q-0.71875 -0.078125 -0.984375 -0.65625q-0.25 -0.59375 -0.0625 -1.5q0.203125 -0.90625 0.84375 -1.6875q1.4375 -1.4375 3.0625 -4.359375q1.625 -2.9375 2.28125 -6.3125q-0.65625 0.125 -1.171875 0.265625q-0.515625 0.125 -1.046875 -0.140625zm26.306488 70.70313q0.78125 0.515625 2.015625 0.515625q1.234375 0 2.46875 -0.515625q1.25 -0.53125 2.34375 -1.4375q1.109375 -0.90625 1.640625 -2.34375q0.515625 -1.4375 -0.015625 -4.09375q-0.515625 -2.671875 -1.625 -5.734375q-1.09375 -3.0625 -2.40625 -6.1875076q-1.296875 -3.125 -2.203125 -5.734375q-0.78125 -1.953125 -1.3125 -3.640625q-0.515625 -1.4375 -0.96875 -2.796875q-0.453125 -1.375 -0.71875 -1.890625q-0.65625 1.046875 -2.28125 3.390625q-1.625 2.34375 -3.515625 4.890625q-1.890625 2.53125 -3.578125 4.6875q-1.6875 2.1406326 -2.34375 2.9218826q-1.046875 1.171875 -2.03125 1.375q-0.96875 0.1875 -1.625 -0.390625q-0.640625 -0.59375 -0.703125 -1.703125q-0.0625 -1.1093826 0.96875 -2.6718826q0.78125 -1.046875 2.34375 -3.3125q1.5625 -2.28125 3.125 -4.6875q1.5625 -2.421875 2.859375 -4.296875q1.3125 -1.890625 1.4375 -2.28125q0.265625 -1.046875 -0.71875 -2.734375q-0.96875 -1.703125 -0.3125 -3.90625q0.515625 -1.828125 2.328125 -4.234375q1.828125 -2.40625 4.296875 -4.359375q2.484375 -1.953125 5.078125 -2.921875q2.609375 -0.984375 4.703125 0.046875q1.6875 1.046875 2.71875 2.28125q1.046875 1.234375 0.796875 2.546875q-0.265625 0.640625 -0.78125 1.6875q-0.53125 1.046875 -1.578125 2.546875q-1.03125 1.484375 -2.984375 3.828125q0.390625 3.0 1.109375 5.484375q0.71875 2.46875 1.359375 4.28125q0.78125 2.21875 1.703125 4.046875q1.171875 2.34375 2.46875 4.8125q1.296875 2.46875 2.34375 4.8906326q1.046875 2.40625 1.6875 4.484375q0.65625 2.078125 0.390625 3.515625q-0.390625 2.21875 -2.28125 5.34375q-1.875 3.125 -4.6875 6.0625q-2.796875 2.921875 -6.375 5.0q-3.578125 2.078125 -7.484375 2.078125q-2.734375 0 -5.28125 -1.6875q-2.53125 -1.6875 -4.296875 -3.96875q-1.75 -2.28125 -2.59375 -4.484375q-0.84375 -2.21875 -0.203125 -3.390625q0.78125 -1.5625 1.4375 -2.46875q0.65625 -0.921875 1.953125 -2.09375q0.515625 -0.390625 1.296875 -0.90625q0.65625 -0.390625 1.828125 -0.78125q1.171875 -0.390625 2.734375 -0.921875q1.296875 4.046875 2.34375 6.328125q1.046875 2.265625 1.6875 3.578125q0.78125 1.421875 1.4375 1.953125z" fill-rule="nonzero"/><path fill="#000000" fill-opacity="0.0" d="m367.49976 53.110237l463.77954 0l0 139.1496l-463.77954 0z" fill-rule="evenodd"/><path fill="#000000" d="m404.45288 74.25398l8.53125 0q0.515625 0 0.890625 0.375q0.375 0.375 0.375 0.875l0 30.140625q0 0.515625 -0.375 0.890625q-0.375 0.375 -0.890625 0.375l-8.4375 0q-0.515625 0 -0.890625 -0.375q-0.375 -0.375 -0.375 -0.890625l0 -14.453125l-3.40625 6.71875q-0.28125 0.5625 -0.84375 0.859375q-0.5625 0.296875 -1.109375 0.296875l-3.171875 0q-0.796875 0 -1.3125 -0.40625q-0.515625 -0.421875 -0.65625 -0.75l-3.40625 -6.71875l0 14.453125q0 0.515625 -0.375 0.890625q-0.375 0.375 -0.875 0.375l-8.453125 0q-0.515625 0 -0.890625 -0.375q-0.375 -0.375 -0.375 -0.890625l0 -30.140625q0 -0.5 0.375 -0.875q0.375 -0.375 0.890625 -0.375l8.53125 0q1.3125 0 2.015625 1.25l6.109375 11.203125l6.109375 -11.203125q0.703125 -1.25 2.015625 -1.25zm22.720215 32.65625l-8.828125 0q-0.421875 0 -0.71875 -0.296875q-0.296875 -0.3125 -0.296875 -0.59375q0 -0.28125 0.046875 -0.421875l10.171875 -29.8125q0.40625 -1.53125 2.09375 -1.53125l12.96875 0q1.6875 0 2.09375 1.53125l10.171875 29.8125q0.046875 0.140625 0.046875 0.421875q0 0.28125 -0.296875 0.59375q-0.296875 0.296875 -0.71875 0.296875l-8.828125 0q-1.484375 0 -2.09375 -1.59375l-1.171875 -3.265625l-11.375 0l-1.171875 3.265625q-0.609375 1.59375 -2.09375 1.59375zm12.265625 -13.953125l-3.3125 -9.703125l-3.3125 9.703125l6.625 0zm35.501465 4.390625l15.90625 0q0.515625 0 0.890625 0.375q0.375 0.375 0.375 0.875l0 7.046875q0 0.515625 -0.375 0.890625q-0.375 0.375 -0.890625 0.375l-27.234375 0q-0.515625 0 -0.890625 -0.375q-0.375 -0.375 -0.375 -0.890625l0 -30.140625q0 -0.5 0.375 -0.875q0.375 -0.375 0.890625 -0.375l10.078125 0q0.5 0 0.875 0.375q0.375 0.375 0.375 0.875l0 21.84375zm36.86084 0.46875l18.625 0q0.5 0 0.875 0.375q0.375 0.375 0.375 0.875l0 6.578125q0 0.515625 -0.375 0.890625q-0.375 0.375 -0.875 0.375l-29.5 0q-0.5 0 -0.875 -0.375q-0.375 -0.375 -0.375 -0.890625l0 -30.140625q0 -0.5 0.375 -0.875q0.375 -0.375 0.875 -0.375l29.03125 0q0.5 0 0.875 0.375q0.375 0.375 0.375 0.875l0 6.578125q0 0.515625 -0.375 0.890625q-0.375 0.375 -0.875 0.375l-18.15625 0l0 2.9375l15.578125 0q0.515625 0 0.890625 0.375q0.375 0.375 0.375 0.890625l0 6.0625q0 0.515625 -0.375 0.890625q-0.375 0.375 -0.890625 0.375l-15.578125 0l0 2.9375zm29.251465 -23.5625l29.671875 0q0.515625 0 0.890625 0.375q0.375 0.375 0.375 0.875l0 7.09375q0 0.515625 -0.375 0.890625q-0.375 0.375 -0.890625 0.375l-18.328125 0l0 2.984375l15.296875 0q0.515625 0 0.890625 0.375q0.375 0.375 0.375 0.890625l0 7.046875q0 0.5 -0.375 0.875q-0.375 0.375 -0.890625 0.375l-15.296875 0l0 9.234375q0 0.515625 -0.375 0.890625q-0.375 0.375 -0.890625 0.375l-10.078125 0q-0.515625 0 -0.890625 -0.375q-0.359375 -0.375 -0.359375 -0.890625l0 -30.140625q0 -0.5 0.359375 -0.875q0.375 -0.375 0.890625 -0.375zm68.36084 9.5625l-8.453125 0l0 13.53125l8.453125 0q0.5 0 0.875 0.375q0.375 0.375 0.375 0.875l0 7.046875q0 0.515625 -0.375 0.890625q-0.375 0.375 -0.875 0.375l-29.59375 0q-0.5 0 -0.875 -0.375q-0.375 -0.375 -0.375 -0.890625l0 -7.046875q0 -0.5 0.375 -0.875q0.375 -0.375 0.875 -0.375l8.546875 0l0 -13.53125l-8.546875 0q-0.5 0 -0.875 -0.375q-0.375 -0.375 -0.375 -0.890625l0 -7.046875q0 -0.5 0.375 -0.875q0.375 -0.375 0.875 -0.375l29.59375 0q0.5 0 0.875 0.375q0.375 0.375 0.375 0.875l0 7.046875q0 0.515625 -0.375 0.890625q-0.375 0.375 -0.875 0.375zm20.563965 3.03125l0 7.46875q0 1.90625 1.28125 2.9375q1.296875 1.03125 3.359375 1.03125q2.078125 0 3.015625 -0.65625q0.9375 -0.65625 1.5625 -1.90625q0.625 -1.265625 1.65625 -1.265625l10.078125 0q0.421875 0 0.71875 0.3125q0.3125 0.296875 0.3125 0.703125q0 4.34375 -4.109375 7.9375q-2.046875 1.78125 -5.453125 2.875q-3.40625 1.09375 -8.03125 1.09375q-4.625 0 -8.421875 -1.421875q-3.796875 -1.421875 -6.1875 -4.65625q-2.375 -3.25 -2.375 -7.96875l0 -5.5q0 -4.71875 2.375 -7.984375q4.484375 -6.0625 14.984375 -6.0625q4.25 0 7.65625 1.09375q3.40625 1.09375 5.453125 2.875q4.109375 3.59375 4.109375 7.921875q0 0.421875 -0.3125 0.734375q-0.296875 0.296875 -0.71875 0.296875l-10.078125 0q-1.03125 0 -1.65625 -1.25q-0.625 -1.265625 -1.5625 -1.921875q-0.9375 -0.65625 -3.015625 -0.65625q-2.0625 0 -3.359375 1.03125q-1.28125 1.03125 -1.28125 2.9375zm40.45459 10.96875l18.625 0q0.5 0 0.875 0.375q0.375 0.375 0.375 0.875l0 6.578125q0 0.515625 -0.375 0.890625q-0.375 0.375 -0.875 0.375l-29.5 0q-0.5 0 -0.875 -0.375q-0.375 -0.375 -0.375 -0.890625l0 -30.140625q0 -0.5 0.375 -0.875q0.375 -0.375 0.875 -0.375l29.03125 0q0.5 0 0.875 0.375q0.375 0.375 0.375 0.875l0 6.578125q0 0.515625 -0.375 0.890625q-0.375 0.375 -0.875 0.375l-18.15625 0l0 2.9375l15.578125 0q0.515625 0 0.890625 0.375q0.375 0.375 0.375 0.890625l0 6.0625q0 0.515625 -0.375 0.890625q-0.375 0.375 -0.890625 0.375l-15.578125 0l0 2.9375zm49.07959 -23.5625l8.6875 0q0.515625 0 0.875 0.375q0.375 0.375 0.375 0.875l0 30.140625q0 0.515625 -0.375 0.890625q-0.359375 0.375 -0.875 0.375l-7.515625 0q-1.125 0 -1.875 -0.984375l-10.15625 -12.96875l0 12.6875q0 0.515625 -0.375 0.890625q-0.375 0.375 -0.890625 0.375l-8.671875 0q-0.515625 0 -0.890625 -0.375q-0.375 -0.375 -0.375 -0.890625l0 -30.140625q0 -0.5 0.375 -0.875q0.375 -0.375 0.890625 -0.375l7.546875 0q1.125 0 1.828125 0.9375l10.171875 14.03125l0 -13.71875q0 -0.5 0.359375 -0.875q0.375 -0.375 0.890625 -0.375zm17.64209 0l32.1875 0q0.515625 0 0.890625 0.375q0.375 0.375 0.375 0.875l0 7.515625q0 0.515625 -0.375 0.890625q-0.375 0.375 -0.890625 0.375l-10.03125 0l0 21.359375q0 0.515625 -0.375 0.890625q-0.375 0.375 -0.875 0.375l-9.625 0q-0.5 0 -0.875 -0.375q-0.375 -0.375 -0.375 -0.890625l0 -21.359375l-10.03125 0q-0.515625 0 -0.890625 -0.375q-0.375 -0.375 -0.375 -0.890625l0 -7.515625q0 -0.5 0.375 -0.875q0.375 -0.375 0.890625 -0.375z" fill-rule="nonzero"/><path fill="#000000" d="m404.45288 130.25398l8.53125 0q0.515625 0 0.890625 0.375q0.375 0.375 0.375 0.875l0 30.140625q0 0.515625 -0.375 0.890625q-0.375 0.375 -0.890625 0.375l-8.4375 0q-0.515625 0 -0.890625 -0.375q-0.375 -0.375 -0.375 -0.890625l0 -14.453125l-3.40625 6.71875q-0.28125 0.5625 -0.84375 0.859375q-0.5625 0.296875 -1.109375 0.296875l-3.171875 0q-0.796875 0 -1.3125 -0.40625q-0.515625 -0.421875 -0.65625 -0.75l-3.40625 -6.71875l0 14.453125q0 0.515625 -0.375 0.890625q-0.375 0.375 -0.875 0.375l-8.453125 0q-0.515625 0 -0.890625 -0.375q-0.375 -0.375 -0.375 -0.890625l0 -30.140625q0 -0.5 0.375 -0.875q0.375 -0.375 0.890625 -0.375l8.53125 0q1.3125 0 2.015625 1.25l6.109375 11.203125l6.109375 -11.203125q0.703125 -1.25 2.015625 -1.25zm48.89209 13.484375l0 5.6875q0 4.8125 -2.34375 8.03125q-2.328125 3.21875 -6.109375 4.578125q-3.765625 1.34375 -8.90625 1.34375q-5.125 0 -8.90625 -1.34375q-3.78125 -1.359375 -6.125 -4.578125q-2.328125 -3.21875 -2.328125 -8.125l0 -5.5q0 -7.046875 4.828125 -10.546875q4.828125 -3.5 12.53125 -3.5q7.703125 0 12.53125 3.5q4.828125 3.5 4.828125 10.453125zm-22.125 -0.890625l0 7.46875q0 1.90625 1.28125 2.9375q1.296875 1.03125 3.484375 1.03125q2.1875 0 3.46875 -1.046875q1.296875 -1.0625 1.296875 -2.96875l0 -7.375q0 -1.90625 -1.296875 -2.953125q-1.28125 -1.0625 -3.46875 -1.0625q-2.1875 0 -3.484375 1.03125q-1.28125 1.03125 -1.28125 2.9375zm50.345215 -12.59375l8.6875 0q0.515625 0 0.875 0.375q0.375 0.375 0.375 0.875l0 30.140625q0 0.515625 -0.375 0.890625q-0.359375 0.375 -0.875 0.375l-7.515625 0q-1.125 0 -1.875 -0.984375l-10.15625 -12.96875l0 12.6875q0 0.515625 -0.375 0.890625q-0.375 0.375 -0.890625 0.375l-8.671875 0q-0.515625 0 -0.890625 -0.375q-0.375 -0.375 -0.375 -0.890625l0 -30.140625q0 -0.5 0.375 -0.875q0.375 -0.375 0.890625 -0.375l7.546875 0q1.125 0 1.828125 0.9375l10.171875 14.03125l0 -13.71875q0 -0.5 0.359375 -0.875q0.375 -0.375 0.890625 -0.375zm51.095215 13.484375l0 5.6875q0 4.8125 -2.34375 8.03125q-2.328125 3.21875 -6.109375 4.578125q-3.765625 1.34375 -8.90625 1.34375q-5.125 0 -8.90625 -1.34375q-3.78125 -1.359375 -6.125 -4.578125q-2.328125 -3.21875 -2.328125 -8.125l0 -5.5q0 -7.046875 4.828125 -10.546875q4.828125 -3.5 12.53125 -3.5q7.703125 0 12.53125 3.5q4.828125 3.5 4.828125 10.453125zm-22.125 -0.890625l0 7.46875q0 1.90625 1.28125 2.9375q1.296875 1.03125 3.484375 1.03125q2.1875 0 3.46875 -1.046875q1.296875 -1.0625 1.296875 -2.96875l0 -7.375q0 -1.90625 -1.296875 -2.953125q-1.28125 -1.0625 -3.46875 -1.0625q-2.1875 0 -3.484375 1.03125q-1.28125 1.03125 -1.28125 2.9375zm62.938965 18.609375q0.09375 0.1875 0.09375 0.515625q0 0.328125 -0.296875 0.640625q-0.296875 0.296875 -0.71875 0.296875l-10.59375 0q-1.40625 0 -1.953125 -1.171875l-4.109375 -9.234375l-3.921875 0l0 9.140625q0 0.515625 -0.375 0.890625q-0.375 0.375 -0.890625 0.375l-10.078125 0q-0.5 0 -0.875 -0.375q-0.375 -0.375 -0.375 -0.890625l0 -30.140625q0 -0.5 0.375 -0.875q0.375 -0.375 0.875 -0.375l18.15625 0q6.390625 0 10.125 3.03125q3.734375 3.03125 3.734375 8.25q0 6.359375 -4.90625 9.203125l5.734375 10.71875zm-21.5 -22.53125l0 4.953125l5.828125 0q1.03125 0 1.59375 -0.671875q0.5625 -0.6875 0.5625 -1.703125q0 -1.03125 -0.546875 -1.796875q-0.53125 -0.78125 -1.609375 -0.78125l-5.828125 0zm39.14209 14.890625l18.625 0q0.5 0 0.875 0.375q0.375 0.375 0.375 0.875l0 6.578125q0 0.515625 -0.375 0.890625q-0.375 0.375 -0.875 0.375l-29.5 0q-0.5 0 -0.875 -0.375q-0.375 -0.375 -0.375 -0.890625l0 -30.140625q0 -0.5 0.375 -0.875q0.375 -0.375 0.875 -0.375l29.03125 0q0.5 0 0.875 0.375q0.375 0.375 0.375 0.875l0 6.578125q0 0.515625 -0.375 0.890625q-0.375 0.375 -0.875 0.375l-18.15625 0l0 2.9375l15.578125 0q0.515625 0 0.890625 0.375q0.375 0.375 0.375 0.890625l0 6.0625q0 0.515625 -0.375 0.890625q-0.375 0.375 -0.890625 0.375l-15.578125 0l0 2.9375zm30.470215 -23.5625l17.453125 0q6.625 0 10.484375 3.21875q3.875 3.21875 3.875 8.265625q0 5.03125 -3.265625 8.0q-3.265625 2.953125 -11.09375 2.953125l-6.171875 0l0 8.953125q0 0.515625 -0.375 0.890625q-0.359375 0.375 -0.875 0.375l-10.03125 0q-0.515625 0 -0.890625 -0.375q-0.375 -0.375 -0.375 -0.890625l0 -30.140625q0 -0.5 0.375 -0.875q0.375 -0.375 0.890625 -0.375zm11.328125 8.671875l0 5.140625l5.9375 0q1.0625 0 1.734375 -0.65625q0.6875 -0.65625 0.6875 -1.8125q0 -1.171875 -0.65625 -1.921875q-0.65625 -0.75 -1.765625 -0.75l-5.9375 0zm58.376465 4.8125l0 5.6875q0 4.8125 -2.34375 8.03125q-2.328125 3.21875 -6.109375 4.578125q-3.765625 1.34375 -8.90625 1.34375q-5.125 0 -8.90625 -1.34375q-3.78125 -1.359375 -6.125 -4.578125q-2.328125 -3.21875 -2.328125 -8.125l0 -5.5q0 -7.046875 4.828125 -10.546875q4.828125 -3.5 12.53125 -3.5q7.703125 0 12.53125 3.5q4.828125 3.5 4.828125 10.453125zm-22.125 -0.890625l0 7.46875q0 1.90625 1.28125 2.9375q1.296875 1.03125 3.484375 1.03125q2.1875 0 3.46875 -1.046875q1.296875 -1.0625 1.296875 -2.96875l0 -7.375q0 -1.90625 -1.296875 -2.953125q-1.28125 -1.0625 -3.46875 -1.0625q-2.1875 0 -3.484375 1.03125q-1.28125 1.03125 -1.28125 2.9375z" fill-rule="nonzero"/><path fill="#000000" fill-opacity="0.0" d="m718.0761 168.04724l0 0c0 -21.334717 17.295227 -38.629913 38.629944 -38.629913l0 0c10.2453 0 20.070923 4.069916 27.31549 11.314438c7.244507 7.244522 11.314392 17.07019 11.314392 27.315475l0 0c0 21.334717 -17.295166 38.62993 -38.629883 38.62993l0 0c-21.334717 0 -38.629944 -17.295212 -38.629944 -38.62993z" fill-rule="evenodd"/><path stroke="#8855ff" stroke-width="4.0" stroke-linejoin="round" stroke-linecap="butt" d="m718.0761 168.04724l0 0c0 -21.334717 17.295227 -38.629913 38.629944 -38.629913l0 0c10.2453 0 20.070923 4.069916 27.31549 11.314438c7.244507 7.244522 11.314392 17.07019 11.314392 27.315475l0 0c0 21.334717 -17.295166 38.62993 -38.629883 38.62993l0 0c-21.334717 0 -38.629944 -17.295212 -38.629944 -38.62993z" fill-rule="evenodd"/><path fill="#8855ff" d="m780.1484 146.45331l0 0c3.4615479 5.792465 1.5719604 13.294342 -4.220459 16.755905c-5.7924805 3.461563 -13.294373 1.5720062 -16.75592 -4.2204742l0 0c7.92749 -2.365158 15.138123 -6.6742096 20.97638 -12.535431z" fill-rule="evenodd"/><path fill="#8855ff" d="m733.2663 146.45331l0 0c-3.461609 5.792465 -1.5720215 13.294342 4.220459 16.755905c5.7924805 3.461563 13.294312 1.5720062 16.75592 -4.2204742l0 0c-7.92749 -2.365158 -15.138123 -6.6742096 -20.97638 -12.535431z" fill-rule="evenodd"/><path fill="#8855ff" d="m780.6084 168.3734l0 0c0 13.202652 -10.702881 23.905518 -23.905518 23.905518c-13.202637 0 -23.905518 -10.702866 -23.905518 -23.905518l0 0c5.6433105 7.5244446 14.5 11.952759 23.905518 11.952759c9.405518 0 18.262207 -4.428314 23.905518 -11.952759z" fill-rule="evenodd"/><path fill="#8855ff" d="m775.6834 133.91414l19.385864 -11.543312l-6.0629883 21.71653z" fill-rule="evenodd"/><path fill="#8855ff" d="m737.73065 133.91414l-19.385803 -11.543312l6.0629883 21.71653z" fill-rule="evenodd"/><path fill="#000000" fill-opacity="0.0" d="m41.919712 14.923884l436.8504 0l0 139.1496l-436.8504 0z" fill-rule="evenodd"/><path fill="#8855ff" d="m79.43534 177.31451q-6.375 0 -11.453125 -3.328125q-5.078129 -3.3125 -8.593754 -9.046875q-3.515625 -5.71875 -5.15625 -13.265625q-1.625 -7.5625 -1.234375 -16.03125q0.53125 -8.984383 2.734375 -18.546883q2.21875 -9.578125 5.984375 -18.6875q3.7812538 -9.109375 8.796879 -17.3125q5.015625 -8.203125 11.0625 -14.3125q6.0625 -6.124996 12.953125 -9.703121q6.90625 -3.59375 14.46875 -3.59375q4.9375 0 8.3125 2.484375q3.390625 2.46875 5.28125 6.4375q1.890625 3.9687462 2.40625 8.921871q0.53125 4.953125 -0.0625 9.828125q-0.578125 4.875 -2.21875 9.375q-1.625 4.484375 -3.96875 7.359375q-2.984375 3.765625 -5.390625 3.96875q-2.40625 0.1875 -4.625 -1.375q-0.90625 -0.78125 -1.828125 -1.8125q-0.90625 -0.921875 -1.953125 -2.28125q-1.03125 -1.375 -2.203125 -3.453125q2.46875 -0.90625 4.546875 -3.046875q2.09375 -2.15625 3.578125 -4.890625q1.5 -2.734375 2.34375 -5.796875q0.859375 -3.0625 0.984375 -6.046875q0.125 -2.34375 -0.140625 -4.625q-0.25 -2.28125 -1.03125 -4.03125q-0.78125 -1.7656212 -2.15625 -2.8749962q-1.359375 -1.109375 -3.4375 -1.109375q-5.21875 0 -10.171875 3.9843712q-4.9375 3.96875 -9.296875 10.546875q-4.359375 6.5625 -8.078125 15.03125q-3.703125 8.453125 -6.4375 17.4375q-2.734375 8.984375 -4.4375 17.71875q-1.6875 8.718758 -2.078125 15.875008q-0.515625 8.984375 0.65625 14.578125q1.171875 5.609375 3.1875 8.796875q2.015625 3.1875 4.359375 4.296875q2.34375 1.109375 4.296875 1.109375q3.640625 0 8.203125 -3.390625q4.5625 -3.375 8.71875 -9.171875q4.171875 -5.796875 7.484375 -13.34375q3.328125 -7.5625 4.765625 -15.890625q-3.265625 0 -6.59375 0.0625q-3.3125 0.0625 -6.3125 0.203125q-2.984375 0.125 -5.328125 0.328125q-2.34375 0.1875 -3.640625 0.453125q-0.921875 -0.390625 -1.25 -0.90625q-0.3125 -0.5312576 -0.578125 -1.1875076q-0.265625 -0.515625 -0.265625 -1.296875q0 -0.78125 0.265625 -1.4375q0.265625 -0.640625 0.65625 -1.359375q0.390625 -0.71875 1.03125 -1.5q4.171875 -0.78125 8.203125 -1.296875q4.046875 -0.53125 8.40625 -0.84375q4.359375 -0.328125 9.375 -0.515625q5.015625 -0.203125 11.25 -0.34375q2.609375 -0.125 3.1875 0.65625q0.59375 0.78125 -0.453125 3.90625q-0.78125 2.46875 -2.015625 4.03125q-1.234375 1.5625076 -4.09375 1.3125076q-0.921875 0 -1.4375 -0.140625q-1.171875 7.6875 -4.953125 16.28125q-3.765625 8.59375 -9.234375 15.875q-5.46875 7.296875 -12.046875 12.109375q-6.578125 4.828125 -13.34375 4.828125zm48.168686 -26.046875q-0.90625 1.4375 -2.015625 1.890625q-1.109375 0.453125 -1.953125 0.125q-0.84375 -0.3125 -1.09375 -1.359375q-0.265625 -1.046875 0.515625 -2.609375q0.390625 -0.78125 1.765625 -3.515625q1.359375 -2.734375 3.2499924 -6.5625q1.875 -3.84375 4.09375 -8.328125q2.21875 -4.5000076 4.234375 -8.531258q2.015625 -4.046875 3.703125 -7.234375q1.703125 -3.1875 2.484375 -4.625q-1.4375 -1.296875 -1.96875 -1.875q-0.515625 -0.59375 -0.765625 -2.546875q-0.265625 -1.703125 0.765625 -4.4375q1.046875 -2.734375 2.734375 -5.265625q1.703125 -2.546875 3.78125 -4.359375q2.09375 -1.828125 4.046875 -1.828125q3.640625 0 5.140625 2.34375q1.5 2.34375 1.75 4.8125q0.265625 1.703125 -0.265625 4.3125q-0.515625 2.59375 -1.9375 4.671875q0.390625 0.265625 1.03125 0.59375q0.65625 0.328125 2.09375 0.328125q2.078125 0 2.921875 -0.265625q0.84375 -0.265625 2.671875 -0.265625q2.21875 0 3.640625 1.109375q1.4375 1.109375 2.34375 2.734375q0.921875 1.625 1.375 3.515625q0.453125 1.890625 0.578125 3.453125q0.390625 3.25 -1.6875 6.765625q-2.078125 3.515625 -5.078125 7.6875076q-1.828125 2.609375 -3.65625 5.859375q-1.8125 3.25 -1.546875 5.859375q0.25 1.6875 0.90625 2.734375q0.65625 1.046875 3.640625 1.046875q2.21875 0 4.890625 -1.625q2.671875 -1.640625 5.46875 -4.171875q2.796875 -2.546875 5.53125 -5.59375q2.734375 -3.0625 5.078125 -5.984375q2.34375 -2.9375076 3.96875 -5.2812576q1.625 -2.34375 2.40625 -3.390625q0.65625 -1.046875 1.6875 -1.4375q1.046875 -0.390625 1.828125 0q0.78125 0.390625 0.96875 1.5625q0.203125 1.171875 -0.96875 3.125q-0.78125 1.3125 -2.671875 4.1718826q-1.875 2.859375 -4.546875 6.375q-2.671875 3.515625 -5.9375 7.234375q-3.25 3.703125 -6.828125 6.765625q-3.578125 3.0625 -7.15625 5.015625q-3.578125 1.953125 -6.84375 1.953125q-3.375 0 -5.59375 -1.3125q-2.21875 -1.296875 -3.59375 -3.171875q-1.359375 -1.890625 -1.953125 -4.171875q-0.578125 -2.28125 -0.4375 -4.234375q0.125 -1.5625 0.84375 -3.3125q0.71875 -1.765625 1.6875 -3.65625q0.984375 -1.890625 2.078125 -3.765625q1.109375 -1.890625 2.03125 -3.71875q2.203125 -3.7812576 3.5625 -6.4375076q1.375 -2.671875 1.375 -4.5q0 -1.171875 -0.515625 -2.078125q-0.515625 -0.921875 -1.6875 -0.921875q-0.78125 0 -1.109375 0.078125q-0.328125 0.0625 -0.65625 0.0625q-0.328125 0 -0.921875 0.0625q-0.578125 0.0625 -1.75 0.0625q-1.6875 0 -2.859375 -0.515625q-1.171875 -0.53125 -2.21875 -0.78125q-0.515625 0.90625 -2.34375 3.90625q-1.8125 2.984375 -4.234375 7.03125q-2.40625 4.0312576 -5.078125 8.468758q-2.65625 4.421875 -5.0 8.265625q-2.34375 3.828125 -3.96875 6.5q-1.6406174 2.671875 -2.0312424 3.1875zm118.10204 -26.421883q-3.90625 5.7187576 -8.859375 11.125008q-4.9375 5.40625 -10.484375 9.640625q-5.53125 4.234375 -11.328125 6.828125q-5.78125 2.609375 -11.25 2.609375q-2.875 0 -6.203125 -1.375q-3.3125 -1.359375 -6.046875 -4.21875q-2.734375 -2.875 -4.359375 -7.421875q-1.625 -4.5625 -0.96875 -11.078125q0.515625 -5.3281326 3.3125 -11.250008q2.796875 -5.9375 6.890625 -10.875q4.109375 -4.953125 9.25 -8.203125q5.15625 -3.265625 10.359375 -3.265625q4.953125 0 7.15625 2.484375q2.21875 2.46875 1.953125 6.109375q-0.390625 4.046875 -2.28125 7.4375q-1.875 3.375 -4.484375 6.109375q-2.609375 2.734375 -5.546875 4.953125q-2.921875 2.203125 -5.515625 4.0312576q-2.875 1.953125 -5.484375 3.71875q-2.59375 1.75 -4.546875 3.1875q0.125 3.25 1.171875 5.46875q1.046875 2.203125 2.609375 3.578125q1.5625 1.359375 3.578125 1.953125q2.015625 0.578125 4.09375 0.578125q4.4375 0 9.25 -2.796875q4.8125 -2.796875 9.4375 -6.765625q4.625 -3.96875 8.59375 -8.265625q3.96875 -4.2968826 6.578125 -7.4218826q0.90625 -1.046875 1.875 -1.234375q0.984375 -0.203125 1.5625 0.25q0.59375 0.453125 0.59375 1.5625q0 1.109375 -0.90625 2.546875zm-33.328125 -20.0625q-1.5625 0 -3.71875 1.5625q-2.140625 1.5625 -4.234375 4.5q-2.078125 2.921875 -3.90625 7.15625q-1.8125 4.234375 -2.734375 9.703125q1.5625 -1.171875 3.390625 -2.40625q1.828125 -1.234375 3.640625 -2.671875q5.609375 -4.296875 7.8125 -7.546875q2.21875 -3.265625 2.484375 -5.609375q0.25 -2.46875 -0.53125 -3.578125q-0.78125 -1.109375 -2.203125 -1.109375zm58.201187 -0.78125q1.6875 -1.296875 3.3125 -2.015625q1.625 -0.71875 2.9375 -0.96875q1.421875 -0.390625 2.859375 -0.265625q3.515625 0.265625 4.359375 2.21875q0.84375 1.953125 0.203125 6.25q-0.390625 2.203125 -1.5625 5.59375q-1.171875 3.390625 -2.734375 8.28125q-1.5625 4.875 -3.328125 11.125008q-1.75 6.25 -3.3125 14.0625q-1.5625 6.375 -3.390625 14.703125q-1.5625 7.296875 -3.71875 17.578125q-2.140625 10.296875 -4.609375 23.578125q-0.65625 3.25 -2.8125 3.765625q-2.140625 0.53125 -4.484375 -0.515625q-0.90625 -0.515625 -1.6875 -1.171875q-0.65625 -0.65625 -1.4375 -1.5q-0.78125 -0.84375 -1.296875 -2.28125q2.984375 -10.9375 5.265625 -19.921875q2.28125 -8.984375 4.109375 -15.625q1.953125 -7.671875 3.640625 -13.796875q0.65625 -2.734375 1.234375 -5.40625q0.59375 -2.671875 1.234375 -5.265625q-1.6875 2.734375 -3.640625 5.203125q-1.953125 2.46875 -4.296875 4.296875q-2.34375 1.828125 -5.015625 2.796875q-2.671875 0.984375 -5.53125 0.59375q-7.03125 -0.921875 -9.96875 -5.21875q-2.921875 -4.296875 -2.53125 -11.1875q0.125 -2.734375 0.78125 -5.984375q0.65625 -3.265625 1.4375 -6.2500076q0.78125 -3.0 1.484375 -5.40625q0.71875 -2.421875 1.109375 -3.453125q1.5625 -4.953125 2.28125 -8.46875q0.71875 -3.515625 -1.109375 -5.859375q1.828125 -1.171875 3.453125 -1.625q1.625 -0.453125 2.9375 -0.71875q1.421875 -0.125 2.859375 0q3.515625 0.515625 4.09375 2.609375q0.59375 2.078125 -0.453125 6.25q-0.515625 2.203125 -1.6875 5.65625q-1.171875 3.453125 -2.484375 7.109375q-1.296875 3.640625 -2.34375 6.7031326q-1.03125 3.046875 -1.15625 4.359375q-1.171875 5.859375 -0.140625 9.046875q1.046875 3.1875 4.5625 3.1875q1.6875 0 3.765625 -1.5q2.09375 -1.5 4.234375 -3.96875q2.15625 -2.46875 4.234375 -5.65625q2.09375 -3.203125 3.84375 -6.453125q1.765625 -3.2500076 3.125 -6.3750076q1.375 -3.125 2.015625 -5.609375q0.921875 -4.8125 1.171875 -7.546875q0.265625 -2.734375 -1.8125 -4.953125zm32.53955 -27.203125q-2.078125 -0.265625 -3.453125 -1.890625q-1.359375 -1.625 -0.96875 -4.625q0.265625 -1.953125 1.296875 -3.578125q1.046875 -1.625 2.546875 -2.7968712q1.5 -1.171875 3.3125 -1.6875q1.828125 -0.53125 3.78125 -0.390625q3.390625 0.390625 4.359375 3.3281212q0.984375 2.921875 0.328125 6.4375q-0.265625 1.8125 -1.046875 4.296875q-0.78125 2.46875 -2.28125 5.078125q-1.484375 2.59375 -3.640625 5.078125q-2.140625 2.46875 -5.140625 4.421875q-1.296875 0.78125 -2.015625 0.71875q-0.71875 -0.078125 -0.984375 -0.65625q-0.25 -0.59375 -0.0625 -1.5q0.203125 -0.90625 0.84375 -1.6875q1.4375 -1.4375 3.0625 -4.359375q1.625 -2.9375 2.28125 -6.3125q-0.65625 0.125 -1.171875 0.265625q-0.515625 0.125 -1.046875 -0.140625zm26.306488 70.70313q0.78125 0.515625 2.015625 0.515625q1.234375 0 2.46875 -0.515625q1.25 -0.53125 2.34375 -1.4375q1.109375 -0.90625 1.640625 -2.34375q0.515625 -1.4375 -0.015625 -4.09375q-0.515625 -2.671875 -1.625 -5.734375q-1.09375 -3.0625 -2.40625 -6.1875076q-1.296875 -3.125 -2.203125 -5.734375q-0.78125 -1.953125 -1.3125 -3.640625q-0.515625 -1.4375 -0.96875 -2.796875q-0.453125 -1.375 -0.71875 -1.890625q-0.65625 1.046875 -2.28125 3.390625q-1.625 2.34375 -3.515625 4.890625q-1.890625 2.53125 -3.578125 4.6875q-1.6875 2.1406326 -2.34375 2.9218826q-1.046875 1.171875 -2.03125 1.375q-0.96875 0.1875 -1.625 -0.390625q-0.640625 -0.59375 -0.703125 -1.703125q-0.0625 -1.1093826 0.96875 -2.6718826q0.78125 -1.046875 2.34375 -3.3125q1.5625 -2.28125 3.125 -4.6875q1.5625 -2.421875 2.859375 -4.296875q1.3125 -1.890625 1.4375 -2.28125q0.265625 -1.046875 -0.71875 -2.734375q-0.96875 -1.703125 -0.3125 -3.90625q0.515625 -1.828125 2.328125 -4.234375q1.828125 -2.40625 4.296875 -4.359375q2.484375 -1.953125 5.078125 -2.921875q2.609375 -0.984375 4.703125 0.046875q1.6875 1.046875 2.71875 2.28125q1.046875 1.234375 0.796875 2.546875q-0.265625 0.640625 -0.78125 1.6875q-0.53125 1.046875 -1.578125 2.546875q-1.03125 1.484375 -2.984375 3.828125q0.390625 3.0 1.109375 5.484375q0.71875 2.46875 1.359375 4.28125q0.78125 2.21875 1.703125 4.046875q1.171875 2.34375 2.46875 4.8125q1.296875 2.46875 2.34375 4.8906326q1.046875 2.40625 1.6875 4.484375q0.65625 2.078125 0.390625 3.515625q-0.390625 2.21875 -2.28125 5.34375q-1.875 3.125 -4.6875 6.0625q-2.796875 2.921875 -6.375 5.0q-3.578125 2.078125 -7.484375 2.078125q-2.734375 0 -5.28125 -1.6875q-2.53125 -1.6875 -4.296875 -3.96875q-1.75 -2.28125 -2.59375 -4.484375q-0.84375 -2.21875 -0.203125 -3.390625q0.78125 -1.5625 1.4375 -2.46875q0.65625 -0.921875 1.953125 -2.09375q0.515625 -0.390625 1.296875 -0.90625q0.65625 -0.390625 1.828125 -0.78125q1.171875 -0.390625 2.734375 -0.921875q1.296875 4.046875 2.34375 6.328125q1.046875 2.265625 1.6875 3.578125q0.78125 1.421875 1.4375 1.953125z" fill-rule="nonzero"/></g></svg>