<svg version="1.1" viewBox="0.0 0.0 192.0 192.0" fill="none" stroke="none" stroke-linecap="square" stroke-miterlimit="10" xmlns:xlink="http://www.w3.org/1999/xlink" xmlns="http://www.w3.org/2000/svg"><clipPath id="p.0"><path d="m0 0l192.0 0l0 192.0l-192.0 0l0 -192.0z" clip-rule="nonzero"/></clipPath><g clip-path="url(#p.0)"><path fill="#000000" fill-opacity="0.0" d="m0 0l192.0 0l0 192.0l-192.0 0z" fill-rule="evenodd"/><path fill="#000000" fill-opacity="0.0" d="m23.066244 106.98601l0 0c0 -38.57296 32.03103 -69.84252 71.543304 -69.84252l0 0c18.974464 0 37.17179 7.358387 50.588753 20.456398c13.416977 13.098015 20.95456 30.862732 20.95456 49.386124l0 0c0 38.572952 -32.031036 69.842514 -71.54331 69.842514l0 0c-39.512276 0 -71.543304 -31.269562 -71.543304 -69.842514z" fill-rule="evenodd"/><path stroke="#ff0000" stroke-width="4.0" stroke-linejoin="round" stroke-linecap="butt" d="m23.066244 106.98601l0 0c0 -38.57296 32.03103 -69.84252 71.543304 -69.84252l0 0c18.974464 0 37.17179 7.358387 50.588753 20.456398c13.416977 13.098015 20.95456 30.862732 20.95456 49.386124l0 0c0 38.572952 -32.031036 69.842514 -71.54331 69.842514l0 0c-39.512276 0 -71.543304 -31.269562 -71.543304 -69.842514z" fill-rule="evenodd"/><path fill="#ff0000" d="m108.543144 105.1902l0 0c-6.4186783 -10.471664 -2.9286118 -24.037086 7.7952805 -30.29921c10.723892 -6.2621307 24.620682 -2.8496246 31.039368 7.6220474l0 0c-14.679626 4.280838 -28.029037 12.076111 -38.83465 22.677162z" fill-rule="evenodd"/><path fill="#ff0000" d="m80.65675 105.1902l0 0c6.4186783 -10.471664 2.9286118 -24.037086 -7.7952805 -30.29921c-10.723888 -6.2621307 -24.620686 -2.8496246 -31.039368 7.6220474l0 0c14.679626 4.280838 28.029037 12.076111 38.83465 22.677162z" fill-rule="evenodd"/><path fill="#ff0000" d="m138.86113 107.59316l0 0c0 23.86567 -19.819328 43.21261 -44.267715 43.21261c-24.44838 0 -44.267715 -19.34694 -44.267715 -43.21261l0 0c10.4501915 13.601486 26.85073 21.6063 44.267715 21.6063c17.416985 0 33.817535 -8.004814 44.267715 -21.6063z" fill-rule="evenodd"/><path fill="#ff0000" d="m16.125984 39.343834l0 0c0 -13.350508 35.760815 -24.17323 79.874016 -24.17323l0 0c44.113205 0 79.87401 10.822722 79.87401 24.17323l0 0c0 13.350502 -35.760803 24.173225 -79.87401 24.173225l0 0c-44.1132 0 -79.874016 -10.822723 -79.874016 -24.173225zm12.086615 0l0 0c0 6.675251 30.349455 12.086613 67.7874 12.086613c37.437943 0 67.7874 -5.4113617 67.7874 -12.086613c0 -6.675255 -30.349457 -12.0866165 -67.7874 -12.0866165l0 0c-37.437946 0 -67.7874 5.4113617 -67.7874 12.0866165z" fill-rule="evenodd"/></g></svg>