<svg version="1.1" viewBox="0.0 0.0 192.0 192.0" fill="none" stroke="none" stroke-linecap="square" stroke-miterlimit="10" xmlns:xlink="http://www.w3.org/1999/xlink" xmlns="http://www.w3.org/2000/svg"><clipPath id="p.0"><path d="m0 0l192.0 0l0 192.0l-192.0 0l0 -192.0z" clip-rule="nonzero"/></clipPath><g clip-path="url(#p.0)"><path fill="#000000" fill-opacity="0.0" d="m0 0l192.0 0l0 192.0l-192.0 0z" fill-rule="evenodd"/><path fill="#000000" fill-opacity="0.0" d="m16.408773 108.33549l0 0c0 -43.304344 34.94294 -78.409454 78.04724 -78.409454l0 0c20.699417 0 40.551033 8.260971 55.187737 22.965595c14.6367035 14.70462 22.859512 34.648376 22.859512 55.443855l0 0c0 43.304344 -34.942947 78.40945 -78.04725 78.40945l0 0c-43.1043 0 -78.04724 -35.105103 -78.04724 -78.40945z" fill-rule="evenodd"/><path stroke="#4400ff" stroke-width="4.0" stroke-linejoin="round" stroke-linecap="butt" d="m16.408773 108.33549l0 0c0 -43.304344 34.94294 -78.409454 78.04724 -78.409454l0 0c20.699417 0 40.551033 8.260971 55.187737 22.965595c14.6367035 14.70462 22.859512 34.648376 22.859512 55.443855l0 0c0 43.304344 -34.942947 78.40945 -78.04725 78.40945l0 0c-43.1043 0 -78.04724 -35.105103 -78.04724 -78.40945z" fill-rule="evenodd"/><path fill="#4400ff" d="m109.65816 106.28541l0 0c-6.9927063 -11.758881 -3.1712646 -26.981201 8.535431 -34.0c11.706696 -7.018799 26.86557 -3.1762009 33.858276 8.58268l0 0c-16.020676 4.791504 -30.593506 13.528709 -42.393707 25.41732z" fill-rule="evenodd"/><path fill="#4400ff" d="m79.29344 106.28541l0 0c6.992714 -11.758881 3.1712646 -26.981201 -8.535431 -34.0c-11.706696 -7.018799 -26.865559 -3.1762009 -33.85827 8.58268l0 0c16.020672 4.791504 30.593506 13.528709 42.3937 25.41732z" fill-rule="evenodd"/><path fill="#4400ff" d="m142.78781 109.036835l0 0c0 26.78798 -21.63134 48.503937 -48.314957 48.503937c-26.683617 0 -48.31496 -21.715958 -48.31496 -48.503937l0 0c11.405613 15.266968 29.3056 24.251968 48.31496 24.251968c19.009354 0 36.909348 -8.985001 48.314957 -24.251968z" fill-rule="evenodd"/><path fill="#4400ff" d="m8.834645 32.40551l0 0c0 -14.994312 39.02526 -27.149605 87.16535 -27.149605l0 0c48.14009 0 87.16536 12.1552925 87.16536 27.149605l0 0c0 14.994316 -39.02527 27.149609 -87.16536 27.149609l0 0c-48.140095 0 -87.16535 -12.1552925 -87.16535 -27.149609zm13.574803 0l0 0c0 7.497158 32.94761 13.574806 73.59055 13.574806c40.642944 0 73.590546 -6.077648 73.590546 -13.574806c0 -7.497154 -32.9476 -13.574802 -73.590546 -13.574802l0 0c-40.64294 0 -73.59055 6.077648 -73.59055 13.574802z" fill-rule="evenodd"/></g></svg>